<svg width="14" height="14" viewBox="0 0 14 14" fill="none" xmlns="http://www.w3.org/2000/svg">
<path d="M13.5 7C13.5 10.5899 10.5899 13.5 7 13.5C3.41015 13.5 0.5 10.5899 0.5 7C0.5 3.41015 3.41015 0.5 7 0.5C10.5899 0.5 13.5 3.41015 13.5 7Z" fill="white" stroke="#DAA520"/>
<path d="M13.5 7C13.5 10.5899 10.5899 13.5 7 13.5C3.41015 13.5 0.5 10.5899 0.5 7C0.5 3.41015 3.41015 0.5 7 0.5C10.5899 0.5 13.5 3.41015 13.5 7Z" fill="white" stroke="#DAA520"/>
<path d="M9.44434 4.94678L7.97949 9.74414H7.05176L7.45459 4.49512H9.44434V4.94678ZM6.74658 4.94678L5.26953 9.74414H4.354L4.74463 4.49512H6.74658V4.94678ZM8.39453 4.94678H7.89404L7.45459 9.35352H7.6499L8.39453 4.94678ZM5.69678 4.94678H5.19629L4.74463 9.35352H4.95215L5.69678 4.94678Z" fill="#DAA520"/>
<path d="M9.95244 13.2194L8.39209 12.4675L9.8234 11.4921L9.95244 13.2194Z" fill="white"/>
</svg>
